<svg width="34" height="26" viewBox="0 0 34 26" fill="none" xmlns="http://www.w3.org/2000/svg">
<mask id="path-1-outside-1_233_80" maskUnits="userSpaceOnUse" x="0" y="0" width="34" height="26" fill="black">
<rect fill="white" width="34" height="26"/>
<path d="M2 24H32ZM2 13H32ZM2 2H32Z"/>
</mask>
<path d="M2 22.2C1.00589 22.2 0.2 23.0059 0.2 24C0.2 24.9941 1.00589 25.8 2 25.8V22.2ZM32 25.8C32.9941 25.8 33.8 24.9941 33.8 24C33.8 23.0059 32.9941 22.2 32 22.2V25.8ZM2 11.2C1.00589 11.2 0.2 12.0059 0.2 13C0.2 13.9941 1.00589 14.8 2 14.8V11.2ZM32 14.8C32.9941 14.8 33.8 13.9941 33.8 13C33.8 12.0059 32.9941 11.2 32 11.2V14.8ZM2 0.2C1.00589 0.2 0.2 1.00589 0.2 2C0.2 2.99411 1.00589 3.8 2 3.8V0.2ZM32 3.8C32.9941 3.8 33.8 2.99411 33.8 2C33.8 1.00589 32.9941 0.2 32 0.2V3.8ZM2 25.8H32V22.2H2V25.8ZM2 14.8H32V11.2H2V14.8ZM2 3.8H32V0.2H2V3.8Z" fill="black" mask="url(#path-1-outside-1_233_80)"/>
</svg>
