<svg width="170" height="30" viewBox="0 0 170 30" fill="none" xmlns="http://www.w3.org/2000/svg">
<g filter="url(#filter0_d_201_2)">
<mask id="path-1-outside-1_201_2" maskUnits="userSpaceOnUse" x="3" y="-1" width="164" height="24" fill="black">
<rect fill="white" x="3" y="-1" width="164" height="24"/>
<path d="M9.52 22H4.56V6.48H9.52V22ZM4.464 3.888V0.559999H9.616V3.888H4.464ZM32.4785 6.48H39.0385C40.7238 6.48 41.5665 7.32267 41.5665 9.008V22H36.6065V9.36C36.6065 8.95467 36.5425 8.688 36.4145 8.56C36.3078 8.432 36.0412 8.368 35.6145 8.368H31.7745C30.9852 8.368 30.5905 8.76267 30.5905 9.552V22H25.6625V9.36C25.6625 8.95467 25.5985 8.688 25.4705 8.56C25.3638 8.432 25.0972 8.368 24.6705 8.368H20.5425C19.7745 8.368 19.3905 8.70933 19.3905 9.392V22H14.4305V6.48H19.3905V7.44C19.6465 6.8 20.2438 6.48 21.1825 6.48H28.0625C29.3212 6.48 30.1105 6.94933 30.4305 7.888C30.6865 6.94933 31.3692 6.48 32.4785 6.48ZM51.7515 20.112H56.0715C56.8395 20.112 57.2235 19.7707 57.2235 19.088V9.392C57.2235 8.70933 56.8395 8.368 56.0715 8.368H51.7515C51.3248 8.368 51.0475 8.432 50.9195 8.56C50.8128 8.688 50.7595 8.95467 50.7595 9.36V19.12C50.7595 19.5467 50.8128 19.824 50.9195 19.952C51.0475 20.0587 51.3248 20.112 51.7515 20.112ZM57.2235 6.48H62.1515V22H57.2235V20.944C56.9675 21.648 56.3595 22 55.3995 22H48.3595C46.6742 22 45.8315 21.1573 45.8315 19.472V9.008C45.8315 7.32267 46.6742 6.48 48.3595 6.48H55.3995C56.3595 6.48 56.9675 6.832 57.2235 7.536V6.48ZM72.1153 22H67.1553V0.591999H72.1153V22ZM82.814 20.112H87.134C87.902 20.112 88.286 19.7707 88.286 19.088V9.392C88.286 8.70933 87.902 8.368 87.134 8.368H82.814C82.3873 8.368 82.11 8.432 81.982 8.56C81.8753 8.688 81.822 8.95467 81.822 9.36V19.12C81.822 19.5467 81.8753 19.824 81.982 19.952C82.11 20.0587 82.3873 20.112 82.814 20.112ZM88.286 6.48H93.214V22H88.286V20.944C88.03 21.648 87.422 22 86.462 22H79.422C77.7367 22 76.894 21.1573 76.894 19.472V9.008C76.894 7.32267 77.7367 6.48 79.422 6.48H86.462C87.422 6.48 88.03 6.832 88.286 7.536V6.48ZM116.01 6.48H122.57C124.255 6.48 125.098 7.32267 125.098 9.008V22H120.138V9.36C120.138 8.95467 120.074 8.688 119.946 8.56C119.839 8.432 119.572 8.368 119.146 8.368H115.306C114.516 8.368 114.122 8.76267 114.122 9.552V22H109.194V9.36C109.194 8.95467 109.13 8.688 109.002 8.56C108.895 8.432 108.628 8.368 108.202 8.368H104.074C103.306 8.368 102.922 8.70933 102.922 9.392V22H97.9618V6.48H102.922V7.44C103.178 6.8 103.775 6.48 104.714 6.48H111.594C112.852 6.48 113.642 6.94933 113.962 7.888C114.218 6.94933 114.9 6.48 116.01 6.48ZM134.739 22H129.779V6.48H134.739V22ZM129.683 3.888V0.559999H134.835V3.888H129.683ZM146.433 6.48H153.473C155.159 6.48 156.001 7.32267 156.001 9.008V22H151.041V9.36C151.041 8.95467 150.977 8.688 150.849 8.56C150.721 8.432 150.455 8.368 150.049 8.368H145.761C145.015 8.368 144.641 8.70933 144.641 9.392V10.352H144.609V22H139.649V6.48H144.609V7.536C144.865 6.832 145.473 6.48 146.433 6.48ZM159.981 22V17.808H165.357V22H159.981Z"/>
</mask>
<path d="M9.52 22H4.56V6.48H9.52V22ZM4.464 3.888V0.559999H9.616V3.888H4.464ZM32.4785 6.48H39.0385C40.7238 6.48 41.5665 7.32267 41.5665 9.008V22H36.6065V9.36C36.6065 8.95467 36.5425 8.688 36.4145 8.56C36.3078 8.432 36.0412 8.368 35.6145 8.368H31.7745C30.9852 8.368 30.5905 8.76267 30.5905 9.552V22H25.6625V9.36C25.6625 8.95467 25.5985 8.688 25.4705 8.56C25.3638 8.432 25.0972 8.368 24.6705 8.368H20.5425C19.7745 8.368 19.3905 8.70933 19.3905 9.392V22H14.4305V6.48H19.3905V7.44C19.6465 6.8 20.2438 6.48 21.1825 6.48H28.0625C29.3212 6.48 30.1105 6.94933 30.4305 7.888C30.6865 6.94933 31.3692 6.48 32.4785 6.48ZM51.7515 20.112H56.0715C56.8395 20.112 57.2235 19.7707 57.2235 19.088V9.392C57.2235 8.70933 56.8395 8.368 56.0715 8.368H51.7515C51.3248 8.368 51.0475 8.432 50.9195 8.56C50.8128 8.688 50.7595 8.95467 50.7595 9.36V19.12C50.7595 19.5467 50.8128 19.824 50.9195 19.952C51.0475 20.0587 51.3248 20.112 51.7515 20.112ZM57.2235 6.48H62.1515V22H57.2235V20.944C56.9675 21.648 56.3595 22 55.3995 22H48.3595C46.6742 22 45.8315 21.1573 45.8315 19.472V9.008C45.8315 7.32267 46.6742 6.48 48.3595 6.48H55.3995C56.3595 6.48 56.9675 6.832 57.2235 7.536V6.48ZM72.1153 22H67.1553V0.591999H72.1153V22ZM82.814 20.112H87.134C87.902 20.112 88.286 19.7707 88.286 19.088V9.392C88.286 8.70933 87.902 8.368 87.134 8.368H82.814C82.3873 8.368 82.11 8.432 81.982 8.56C81.8753 8.688 81.822 8.95467 81.822 9.36V19.12C81.822 19.5467 81.8753 19.824 81.982 19.952C82.11 20.0587 82.3873 20.112 82.814 20.112ZM88.286 6.48H93.214V22H88.286V20.944C88.03 21.648 87.422 22 86.462 22H79.422C77.7367 22 76.894 21.1573 76.894 19.472V9.008C76.894 7.32267 77.7367 6.48 79.422 6.48H86.462C87.422 6.48 88.03 6.832 88.286 7.536V6.48ZM116.01 6.48H122.57C124.255 6.48 125.098 7.32267 125.098 9.008V22H120.138V9.36C120.138 8.95467 120.074 8.688 119.946 8.56C119.839 8.432 119.572 8.368 119.146 8.368H115.306C114.516 8.368 114.122 8.76267 114.122 9.552V22H109.194V9.36C109.194 8.95467 109.13 8.688 109.002 8.56C108.895 8.432 108.628 8.368 108.202 8.368H104.074C103.306 8.368 102.922 8.70933 102.922 9.392V22H97.9618V6.48H102.922V7.44C103.178 6.8 103.775 6.48 104.714 6.48H111.594C112.852 6.48 113.642 6.94933 113.962 7.888C114.218 6.94933 114.9 6.48 116.01 6.48ZM134.739 22H129.779V6.48H134.739V22ZM129.683 3.888V0.559999H134.835V3.888H129.683ZM146.433 6.48H153.473C155.159 6.48 156.001 7.32267 156.001 9.008V22H151.041V9.36C151.041 8.95467 150.977 8.688 150.849 8.56C150.721 8.432 150.455 8.368 150.049 8.368H145.761C145.015 8.368 144.641 8.70933 144.641 9.392V10.352H144.609V22H139.649V6.48H144.609V7.536C144.865 6.832 145.473 6.48 146.433 6.48ZM159.981 22V17.808H165.357V22H159.981Z" fill="white"/>
<path d="M9.52 22V23H10.52V22H9.52ZM4.56 22H3.56V23H4.56V22ZM4.56 6.48V5.48H3.56V6.48H4.56ZM9.52 6.48H10.52V5.48H9.52V6.48ZM4.464 3.888H3.464V4.888H4.464V3.888ZM4.464 0.559999V-0.440001H3.464V0.559999H4.464ZM9.616 0.559999H10.616V-0.440001H9.616V0.559999ZM9.616 3.888V4.888H10.616V3.888H9.616ZM9.52 21H4.56V23H9.52V21ZM5.56 22V6.48H3.56V22H5.56ZM4.56 7.48H9.52V5.48H4.56V7.48ZM8.52 6.48V22H10.52V6.48H8.52ZM5.464 3.888V0.559999H3.464V3.888H5.464ZM4.464 1.56H9.616V-0.440001H4.464V1.56ZM8.616 0.559999V3.888H10.616V0.559999H8.616ZM9.616 2.888H4.464V4.888H9.616V2.888ZM41.5665 22V23H42.5665V22H41.5665ZM36.6065 22H35.6065V23H36.6065V22ZM36.4145 8.56L35.6463 9.20018L35.6753 9.23503L35.7074 9.26711L36.4145 8.56ZM30.5905 22V23H31.5905V22H30.5905ZM25.6625 22H24.6625V23H25.6625V22ZM25.4705 8.56L24.7023 9.20018L24.7313 9.23503L24.7634 9.26711L25.4705 8.56ZM19.3905 22V23H20.3905V22H19.3905ZM14.4305 22H13.4305V23H14.4305V22ZM14.4305 6.48V5.48H13.4305V6.48H14.4305ZM19.3905 6.48H20.3905V5.48H19.3905V6.48ZM19.3905 7.44H18.3905L20.319 7.81139L19.3905 7.44ZM30.4305 7.888L29.484 8.21067L30.5368 11.2989L31.3953 8.15112L30.4305 7.888ZM32.4785 7.48H39.0385V5.48H32.4785V7.48ZM39.0385 7.48C39.727 7.48 40.0597 7.65145 40.2274 7.81911C40.3951 7.98676 40.5665 8.31948 40.5665 9.008H42.5665C42.5665 8.01119 42.3166 7.07991 41.6416 6.40489C40.9666 5.72988 40.0353 5.48 39.0385 5.48V7.48ZM40.5665 9.008V22H42.5665V9.008H40.5665ZM41.5665 21H36.6065V23H41.5665V21ZM37.6065 22V9.36H35.6065V22H37.6065ZM37.6065 9.36C37.6065 9.11232 37.5877 8.85931 37.5309 8.62263C37.4764 8.39556 37.3667 8.09802 37.1216 7.85289L35.7074 9.26711C35.6462 9.20587 35.6139 9.14954 35.5993 9.11946C35.5849 9.08983 35.583 9.07653 35.5861 9.08937C35.589 9.10147 35.5945 9.12929 35.599 9.17681C35.6035 9.22379 35.6065 9.28427 35.6065 9.36H37.6065ZM37.1827 7.91982C36.9278 7.6139 36.5869 7.49619 36.3679 7.44361C36.1282 7.38608 35.8681 7.368 35.6145 7.368V9.368C35.697 9.368 35.7624 9.37113 35.8126 9.37576C35.8636 9.38048 35.8914 9.38606 35.9011 9.38839C35.9123 9.39108 35.8894 9.387 35.8472 9.36529C35.8044 9.34331 35.7247 9.29424 35.6463 9.20018L37.1827 7.91982ZM35.6145 7.368H31.7745V9.368H35.6145V7.368ZM31.7745 7.368C31.2257 7.368 30.6304 7.50588 30.1794 7.95689C29.7284 8.40791 29.5905 9.00319 29.5905 9.552H31.5905C31.5905 9.43501 31.6055 9.37336 31.6132 9.35023C31.6193 9.33193 31.6171 9.34761 31.5936 9.37111C31.5701 9.3946 31.5544 9.39678 31.5727 9.39068C31.5959 9.38297 31.6575 9.368 31.7745 9.368V7.368ZM29.5905 9.552V22H31.5905V9.552H29.5905ZM30.5905 21H25.6625V23H30.5905V21ZM26.6625 22V9.36H24.6625V22H26.6625ZM26.6625 9.36C26.6625 9.11232 26.6437 8.85931 26.5869 8.62263C26.5324 8.39556 26.4227 8.09802 26.1776 7.85289L24.7634 9.26711C24.7022 9.20587 24.6699 9.14954 24.6553 9.11946C24.6409 9.08983 24.639 9.07653 24.6421 9.08937C24.645 9.10147 24.6505 9.12929 24.655 9.17681C24.6595 9.22379 24.6625 9.28427 24.6625 9.36H26.6625ZM26.2387 7.91982C25.9838 7.6139 25.6429 7.49619 25.4239 7.44361C25.1842 7.38608 24.9241 7.368 24.6705 7.368V9.368C24.753 9.368 24.8184 9.37113 24.8686 9.37576C24.9196 9.38048 24.9474 9.38606 24.9571 9.38839C24.9683 9.39108 24.9454 9.387 24.9032 9.36529C24.8604 9.34331 24.7807 9.29424 24.7023 9.20018L26.2387 7.91982ZM24.6705 7.368H20.5425V9.368H24.6705V7.368ZM20.5425 7.368C20.0315 7.368 19.4614 7.47901 19.0141 7.87659C18.5444 8.29412 18.3905 8.86402 18.3905 9.392H20.3905C20.3905 9.3126 20.4019 9.28683 20.3988 9.29512C20.397 9.3 20.3919 9.3119 20.3813 9.32747C20.3707 9.34328 20.3575 9.35844 20.3429 9.37141C20.3121 9.39876 20.2957 9.39878 20.3226 9.3908C20.3529 9.38182 20.4214 9.368 20.5425 9.368V7.368ZM18.3905 9.392V22H20.3905V9.392H18.3905ZM19.3905 21H14.4305V23H19.3905V21ZM15.4305 22V6.48H13.4305V22H15.4305ZM14.4305 7.48H19.3905V5.48H14.4305V7.48ZM18.3905 6.48V7.44H20.3905V6.48H18.3905ZM20.319 7.81139C20.3613 7.70568 20.4153 7.64833 20.5027 7.60148C20.611 7.54345 20.8178 7.48 21.1825 7.48V5.48C20.6086 5.48 20.0473 5.57655 19.5583 5.83852C19.0484 6.11167 18.6757 6.53432 18.462 7.06861L20.319 7.81139ZM21.1825 7.48H28.0625V5.48H21.1825V7.48ZM28.0625 7.48C28.5759 7.48 28.8944 7.57677 29.0874 7.69154C29.2608 7.79462 29.3941 7.94697 29.484 8.21067L31.377 7.56533C31.1469 6.89036 30.7255 6.33871 30.1096 5.97246C29.5133 5.61789 28.8077 5.48 28.0625 5.48V7.48ZM31.3953 8.15112C31.4724 7.86812 31.5876 7.73403 31.701 7.65604C31.8277 7.56898 32.0588 7.48 32.4785 7.48V5.48C31.7889 5.48 31.124 5.62569 30.568 6.00796C29.9987 6.3993 29.6446 6.96922 29.4657 7.62488L31.3953 8.15112ZM50.9195 8.56L50.2124 7.85289L50.1803 7.88497L50.1513 7.91982L50.9195 8.56ZM50.9195 19.952L50.1513 20.5922L50.2095 20.662L50.2793 20.7202L50.9195 19.952ZM57.2235 6.48V5.48H56.2235V6.48H57.2235ZM62.1515 6.48H63.1515V5.48H62.1515V6.48ZM62.1515 22V23H63.1515V22H62.1515ZM57.2235 22H56.2235V23H57.2235V22ZM57.2235 20.944H58.2235L56.2837 20.6023L57.2235 20.944ZM57.2235 7.536L56.2837 7.87774L58.2235 7.536H57.2235ZM51.7515 21.112H56.0715V19.112H51.7515V21.112ZM56.0715 21.112C56.5825 21.112 57.1526 21.001 57.5999 20.6034C58.0696 20.1859 58.2235 19.616 58.2235 19.088H56.2235C56.2235 19.1674 56.2121 19.1932 56.2152 19.1849C56.217 19.18 56.2221 19.1681 56.2327 19.1525C56.2433 19.1367 56.2565 19.1216 56.2711 19.1086C56.3019 19.0812 56.3183 19.0812 56.2914 19.0892C56.2611 19.0982 56.1926 19.112 56.0715 19.112V21.112ZM58.2235 19.088V9.392H56.2235V19.088H58.2235ZM58.2235 9.392C58.2235 8.86402 58.0696 8.29412 57.5999 7.87659C57.1526 7.47901 56.5825 7.368 56.0715 7.368V9.368C56.1926 9.368 56.2611 9.38182 56.2914 9.3908C56.3183 9.39878 56.3019 9.39876 56.2711 9.37141C56.2565 9.35844 56.2433 9.34328 56.2327 9.32747C56.2221 9.3119 56.217 9.3 56.2152 9.29512C56.2121 9.28683 56.2235 9.3126 56.2235 9.392H58.2235ZM56.0715 7.368H51.7515V9.368H56.0715V7.368ZM51.7515 7.368C51.496 7.368 51.2378 7.38641 50.9986 7.44161C50.773 7.49368 50.4644 7.60085 50.2124 7.85289L51.6266 9.26711C51.5608 9.33289 51.5007 9.36594 51.4716 9.37974C51.4426 9.39346 51.4313 9.39432 51.4484 9.39039C51.4644 9.38669 51.4969 9.38072 51.55 9.37589C51.6025 9.37112 51.6691 9.368 51.7515 9.368V7.368ZM50.1513 7.91982C49.9441 8.16844 49.8599 8.45511 49.8189 8.65988C49.7747 8.88088 49.7595 9.12018 49.7595 9.36H51.7595C51.7595 9.27998 51.7622 9.21417 51.7664 9.16112C51.7706 9.10753 51.776 9.07229 51.7801 9.05211C51.7843 9.0309 51.7852 9.03564 51.7762 9.0577C51.7676 9.07894 51.7427 9.13422 51.6877 9.20018L50.1513 7.91982ZM49.7595 9.36V19.12H51.7595V9.36H49.7595ZM49.7595 19.12C49.7595 19.3681 49.7745 19.613 49.8175 19.8368C49.8566 20.0403 49.9387 20.3371 50.1513 20.5922L51.6877 19.3118C51.7465 19.3824 51.7719 19.4412 51.7797 19.4608C51.788 19.4819 51.7864 19.4844 51.7815 19.4592C51.7712 19.4056 51.7595 19.2986 51.7595 19.12H49.7595ZM50.2793 20.7202C50.5344 20.9328 50.8312 21.0149 51.0347 21.054C51.2585 21.097 51.5034 21.112 51.7515 21.112V19.112C51.5729 19.112 51.4659 19.1003 51.4123 19.09C51.3871 19.0851 51.3896 19.0835 51.4107 19.0918C51.4303 19.0996 51.4891 19.125 51.5597 19.1838L50.2793 20.7202ZM57.2235 7.48H62.1515V5.48H57.2235V7.48ZM61.1515 6.48V22H63.1515V6.48H61.1515ZM62.1515 21H57.2235V23H62.1515V21ZM58.2235 22V20.944H56.2235V22H58.2235ZM56.2837 20.6023C56.2302 20.7494 56.1612 20.8204 56.0745 20.8706C55.9685 20.9319 55.7654 21 55.3995 21V23C55.9936 23 56.5745 22.8921 57.0765 22.6014C57.5978 22.2996 57.9608 21.8426 58.1633 21.2857L56.2837 20.6023ZM55.3995 21H48.3595V23H55.3995V21ZM48.3595 21C47.671 21 47.3383 20.8285 47.1706 20.6609C47.003 20.4932 46.8315 20.1605 46.8315 19.472H44.8315C44.8315 20.4688 45.0814 21.4001 45.7564 22.0751C46.4314 22.7501 47.3627 23 48.3595 23V21ZM46.8315 19.472V9.008H44.8315V19.472H46.8315ZM46.8315 9.008C46.8315 8.31948 47.003 7.98676 47.1706 7.81911C47.3383 7.65145 47.671 7.48 48.3595 7.48V5.48C47.3627 5.48 46.4314 5.72988 45.7564 6.40489C45.0814 7.07991 44.8315 8.01119 44.8315 9.008H46.8315ZM48.3595 7.48H55.3995V5.48H48.3595V7.48ZM55.3995 7.48C55.7654 7.48 55.9685 7.5481 56.0745 7.60943C56.1612 7.65963 56.2302 7.73061 56.2837 7.87774L58.1633 7.19426C57.9608 6.63739 57.5978 6.18036 57.0765 5.87857C56.5745 5.5879 55.9936 5.48 55.3995 5.48V7.48ZM58.2235 7.536V6.48H56.2235V7.536H58.2235ZM72.1152 22V23H73.1152V22H72.1152ZM67.1553 22H66.1553V23H67.1553V22ZM67.1553 0.591999V-0.408001H66.1553V0.591999H67.1553ZM72.1152 0.591999H73.1152V-0.408001H72.1152V0.591999ZM72.1152 21H67.1553V23H72.1152V21ZM68.1553 22V0.591999H66.1553V22H68.1553ZM67.1553 1.592H72.1152V-0.408001H67.1553V1.592ZM71.1152 0.591999V22H73.1152V0.591999H71.1152ZM81.982 8.56L81.2749 7.85289L81.2428 7.88497L81.2138 7.91982L81.982 8.56ZM81.982 19.952L81.2138 20.5922L81.272 20.662L81.3418 20.7202L81.982 19.952ZM88.286 6.48V5.48H87.286V6.48H88.286ZM93.214 6.48H94.214V5.48H93.214V6.48ZM93.214 22V23H94.214V22H93.214ZM88.286 22H87.286V23H88.286V22ZM88.286 20.944H89.286L87.3462 20.6023L88.286 20.944ZM88.286 7.536L87.3462 7.87774L89.286 7.536H88.286ZM82.814 21.112H87.134V19.112H82.814V21.112ZM87.134 21.112C87.645 21.112 88.2151 21.001 88.6624 20.6034C89.1321 20.1859 89.286 19.616 89.286 19.088H87.286C87.286 19.1674 87.2746 19.1932 87.2777 19.1849C87.2795 19.18 87.2846 19.1681 87.2952 19.1525C87.3058 19.1367 87.319 19.1216 87.3336 19.1086C87.3644 19.0812 87.3808 19.0812 87.3539 19.0892C87.3236 19.0982 87.2551 19.112 87.134 19.112V21.112ZM89.286 19.088V9.392H87.286V19.088H89.286ZM89.286 9.392C89.286 8.86402 89.1321 8.29412 88.6624 7.87659C88.2151 7.47901 87.645 7.368 87.134 7.368V9.368C87.2551 9.368 87.3236 9.38182 87.3539 9.3908C87.3808 9.39878 87.3644 9.39876 87.3336 9.37141C87.319 9.35844 87.3058 9.34328 87.2952 9.32747C87.2846 9.3119 87.2795 9.3 87.2777 9.29512C87.2746 9.28683 87.286 9.3126 87.286 9.392H89.286ZM87.134 7.368H82.814V9.368H87.134V7.368ZM82.814 7.368C82.5585 7.368 82.3003 7.38641 82.0611 7.44161C81.8355 7.49368 81.5269 7.60085 81.2749 7.85289L82.6891 9.26711C82.6233 9.33289 82.5632 9.36594 82.5341 9.37974C82.5051 9.39346 82.4938 9.39432 82.5109 9.39039C82.5269 9.38669 82.5594 9.38072 82.6125 9.37589C82.665 9.37112 82.7316 9.368 82.814 9.368V7.368ZM81.2138 7.91982C81.0066 8.16844 80.9224 8.45511 80.8814 8.65988C80.8372 8.88088 80.822 9.12018 80.822 9.36H82.822C82.822 9.27998 82.8247 9.21417 82.8289 9.16112C82.8331 9.10753 82.8385 9.07229 82.8426 9.05211C82.8468 9.0309 82.8477 9.03564 82.8387 9.0577C82.8301 9.07894 82.8052 9.13422 82.7502 9.20018L81.2138 7.91982ZM80.822 9.36V19.12H82.822V9.36H80.822ZM80.822 19.12C80.822 19.3681 80.837 19.613 80.88 19.8368C80.9191 20.0403 81.0012 20.3371 81.2138 20.5922L82.7502 19.3118C82.809 19.3824 82.8344 19.4412 82.8422 19.4608C82.8505 19.4819 82.8489 19.4844 82.844 19.4592C82.8337 19.4056 82.822 19.2986 82.822 19.12H80.822ZM81.3418 20.7202C81.5969 20.9328 81.8937 21.0149 82.0972 21.054C82.321 21.097 82.5659 21.112 82.814 21.112V19.112C82.6354 19.112 82.5284 19.1003 82.4748 19.09C82.4496 19.0851 82.4521 19.0835 82.4732 19.0918C82.4928 19.0996 82.5516 19.125 82.6222 19.1838L81.3418 20.7202ZM88.286 7.48H93.214V5.48H88.286V7.48ZM92.214 6.48V22H94.214V6.48H92.214ZM93.214 21H88.286V23H93.214V21ZM89.286 22V20.944H87.286V22H89.286ZM87.3462 20.6023C87.2927 20.7494 87.2237 20.8204 87.137 20.8706C87.031 20.9319 86.8279 21 86.462 21V23C87.0561 23 87.637 22.8921 88.139 22.6014C88.6603 22.2996 89.0233 21.8426 89.2258 21.2857L87.3462 20.6023ZM86.462 21H79.422V23H86.462V21ZM79.422 21C78.7335 21 78.4008 20.8285 78.2331 20.6609C78.0655 20.4932 77.894 20.1605 77.894 19.472H75.894C75.894 20.4688 76.1439 21.4001 76.8189 22.0751C77.4939 22.7501 78.4252 23 79.422 23V21ZM77.894 19.472V9.008H75.894V19.472H77.894ZM77.894 9.008C77.894 8.31948 78.0655 7.98676 78.2331 7.81911C78.4008 7.65145 78.7335 7.48 79.422 7.48V5.48C78.4252 5.48 77.4939 5.72988 76.8189 6.40489C76.1439 7.07991 75.894 8.01119 75.894 9.008H77.894ZM79.422 7.48H86.462V5.48H79.422V7.48ZM86.462 7.48C86.8279 7.48 87.031 7.5481 87.137 7.60943C87.2237 7.65963 87.2927 7.73061 87.3462 7.87774L89.2258 7.19426C89.0233 6.63739 88.6603 6.18036 88.139 5.87857C87.637 5.5879 87.0561 5.48 86.462 5.48V7.48ZM89.286 7.536V6.48H87.286V7.536H89.286ZM125.098 22V23H126.098V22H125.098ZM120.138 22H119.138V23H120.138V22ZM119.946 8.56L119.178 9.20018L119.207 9.23503L119.239 9.26711L119.946 8.56ZM114.122 22V23H115.122V22H114.122ZM109.194 22H108.194V23H109.194V22ZM109.002 8.56L108.234 9.20018L108.263 9.23503L108.295 9.26711L109.002 8.56ZM102.922 22V23H103.922V22H102.922ZM97.9617 22H96.9617V23H97.9617V22ZM97.9617 6.48V5.48H96.9617V6.48H97.9617ZM102.922 6.48H103.922V5.48H102.922V6.48ZM102.922 7.44H101.922L103.85 7.81139L102.922 7.44ZM113.962 7.888L113.015 8.21067L114.068 11.2989L114.927 8.15112L113.962 7.888ZM116.01 7.48H122.57V5.48H116.01V7.48ZM122.57 7.48C123.258 7.48 123.591 7.65145 123.759 7.81911C123.926 7.98676 124.098 8.31948 124.098 9.008H126.098C126.098 8.01119 125.848 7.07991 125.173 6.40489C124.498 5.72988 123.567 5.48 122.57 5.48V7.48ZM124.098 9.008V22H126.098V9.008H124.098ZM125.098 21H120.138V23H125.098V21ZM121.138 22V9.36H119.138V22H121.138ZM121.138 9.36C121.138 9.11232 121.119 8.85931 121.062 8.62263C121.008 8.39556 120.898 8.09802 120.653 7.85289L119.239 9.26711C119.177 9.20587 119.145 9.14954 119.131 9.11946C119.116 9.08983 119.114 9.07653 119.117 9.08937C119.12 9.10147 119.126 9.12929 119.13 9.17681C119.135 9.22379 119.138 9.28427 119.138 9.36H121.138ZM120.714 7.91982C120.459 7.6139 120.118 7.49619 119.899 7.44361C119.659 7.38608 119.399 7.368 119.146 7.368V9.368C119.228 9.368 119.294 9.37113 119.344 9.37576C119.395 9.38048 119.423 9.38606 119.432 9.38839C119.444 9.39108 119.421 9.387 119.378 9.36529C119.336 9.34331 119.256 9.29424 119.178 9.20018L120.714 7.91982ZM119.146 7.368H115.306V9.368H119.146V7.368ZM115.306 7.368C114.757 7.368 114.162 7.50588 113.711 7.95689C113.26 8.40791 113.122 9.00319 113.122 9.552H115.122C115.122 9.43501 115.137 9.37336 115.144 9.35023C115.151 9.33193 115.148 9.34761 115.125 9.37111C115.101 9.3946 115.086 9.39678 115.104 9.39068C115.127 9.38297 115.189 9.368 115.306 9.368V7.368ZM113.122 9.552V22H115.122V9.552H113.122ZM114.122 21H109.194V23H114.122V21ZM110.194 22V9.36H108.194V22H110.194ZM110.194 9.36C110.194 9.11232 110.175 8.85931 110.118 8.62263C110.064 8.39556 109.954 8.09802 109.709 7.85289L108.295 9.26711C108.233 9.20587 108.201 9.14954 108.187 9.11946C108.172 9.08983 108.17 9.07653 108.173 9.08937C108.176 9.10147 108.182 9.12929 108.186 9.17681C108.191 9.22379 108.194 9.28427 108.194 9.36H110.194ZM109.77 7.91982C109.515 7.6139 109.174 7.49619 108.955 7.44361C108.715 7.38608 108.455 7.368 108.202 7.368V9.368C108.284 9.368 108.35 9.37113 108.4 9.37576C108.451 9.38048 108.479 9.38606 108.488 9.38839C108.5 9.39108 108.477 9.387 108.434 9.36529C108.392 9.34331 108.312 9.29424 108.234 9.20018L109.77 7.91982ZM108.202 7.368H104.074V9.368H108.202V7.368ZM104.074 7.368C103.563 7.368 102.993 7.47901 102.545 7.87659C102.076 8.29412 101.922 8.86402 101.922 9.392H103.922C103.922 9.3126 103.933 9.28683 103.93 9.29512C103.928 9.3 103.923 9.3119 103.913 9.32747C103.902 9.34328 103.889 9.35844 103.874 9.37141C103.843 9.39876 103.827 9.39878 103.854 9.3908C103.884 9.38182 103.953 9.368 104.074 9.368V7.368ZM101.922 9.392V22H103.922V9.392H101.922ZM102.922 21H97.9617V23H102.922V21ZM98.9617 22V6.48H96.9617V22H98.9617ZM97.9617 7.48H102.922V5.48H97.9617V7.48ZM101.922 6.48V7.44H103.922V6.48H101.922ZM103.85 7.81139C103.893 7.70568 103.947 7.64833 104.034 7.60148C104.142 7.54345 104.349 7.48 104.714 7.48V5.48C104.14 5.48 103.579 5.57655 103.09 5.83852C102.58 6.11167 102.207 6.53432 101.993 7.06861L103.85 7.81139ZM104.714 7.48H111.594V5.48H104.714V7.48ZM111.594 7.48C112.107 7.48 112.426 7.57677 112.619 7.69154C112.792 7.79462 112.925 7.94697 113.015 8.21067L114.908 7.56533C114.678 6.89036 114.257 6.33871 113.641 5.97246C113.045 5.61789 112.339 5.48 111.594 5.48V7.48ZM114.927 8.15112C115.004 7.86812 115.119 7.73403 115.232 7.65604C115.359 7.56898 115.59 7.48 116.01 7.48V5.48C115.32 5.48 114.655 5.62569 114.099 6.00796C113.53 6.3993 113.176 6.96922 112.997 7.62488L114.927 8.15112ZM134.739 22V23H135.739V22H134.739ZM129.779 22H128.779V23H129.779V22ZM129.779 6.48V5.48H128.779V6.48H129.779ZM134.739 6.48H135.739V5.48H134.739V6.48ZM129.683 3.888H128.683V4.888H129.683V3.888ZM129.683 0.559999V-0.440001H128.683V0.559999H129.683ZM134.835 0.559999H135.835V-0.440001H134.835V0.559999ZM134.835 3.888V4.888H135.835V3.888H134.835ZM134.739 21H129.779V23H134.739V21ZM130.779 22V6.48H128.779V22H130.779ZM129.779 7.48H134.739V5.48H129.779V7.48ZM133.739 6.48V22H135.739V6.48H133.739ZM130.683 3.888V0.559999H128.683V3.888H130.683ZM129.683 1.56H134.835V-0.440001H129.683V1.56ZM133.835 0.559999V3.888H135.835V0.559999H133.835ZM134.835 2.888H129.683V4.888H134.835V2.888ZM156.001 22V23H157.001V22H156.001ZM151.041 22H150.041V23H151.041V22ZM144.641 10.352V11.352H145.641V10.352H144.641ZM144.609 10.352V9.352H143.609V10.352H144.609ZM144.609 22V23H145.609V22H144.609ZM139.649 22H138.649V23H139.649V22ZM139.649 6.48V5.48H138.649V6.48H139.649ZM144.609 6.48H145.609V5.48H144.609V6.48ZM144.609 7.536H143.609L145.549 7.87774L144.609 7.536ZM146.433 7.48H153.473V5.48H146.433V7.48ZM153.473 7.48C154.162 7.48 154.494 7.65145 154.662 7.81911C154.83 7.98676 155.001 8.31948 155.001 9.008H157.001C157.001 8.01119 156.751 7.07991 156.076 6.40489C155.401 5.72988 154.47 5.48 153.473 5.48V7.48ZM155.001 9.008V22H157.001V9.008H155.001ZM156.001 21H151.041V23H156.001V21ZM152.041 22V9.36H150.041V22H152.041ZM152.041 9.36C152.041 9.11232 152.022 8.85931 151.966 8.62263C151.911 8.39556 151.801 8.09802 151.556 7.85289L150.142 9.26711C150.081 9.20587 150.049 9.14954 150.034 9.11946C150.02 9.08983 150.018 9.07653 150.021 9.08937C150.024 9.10147 150.029 9.12929 150.034 9.17681C150.038 9.22379 150.041 9.28427 150.041 9.36H152.041ZM151.556 7.85289C151.311 7.60776 151.014 7.49811 150.787 7.44361C150.55 7.38681 150.297 7.368 150.049 7.368V9.368C150.125 9.368 150.185 9.37102 150.232 9.37549C150.28 9.38002 150.308 9.38548 150.32 9.38839C150.333 9.39147 150.319 9.38965 150.29 9.37523C150.26 9.3606 150.203 9.32834 150.142 9.26711L151.556 7.85289ZM150.049 7.368H145.761V9.368H150.049V7.368ZM145.761 7.368C145.255 7.368 144.688 7.48184 144.246 7.88597C143.787 8.30562 143.641 8.87231 143.641 9.392H145.641C145.641 9.30985 145.653 9.28098 145.651 9.28653C145.649 9.29012 145.645 9.30129 145.635 9.31666C145.625 9.33229 145.611 9.34803 145.596 9.36203C145.563 9.39182 145.543 9.39463 145.563 9.38856C145.586 9.38135 145.648 9.368 145.761 9.368V7.368ZM143.641 9.392V10.352H145.641V9.392H143.641ZM144.641 9.352H144.609V11.352H144.641V9.352ZM143.609 10.352V22H145.609V10.352H143.609ZM144.609 21H139.649V23H144.609V21ZM140.649 22V6.48H138.649V22H140.649ZM139.649 7.48H144.609V5.48H139.649V7.48ZM143.609 6.48V7.536H145.609V6.48H143.609ZM145.549 7.87774C145.603 7.73061 145.672 7.65963 145.758 7.60943C145.864 7.5481 146.067 7.48 146.433 7.48V5.48C145.839 5.48 145.258 5.5879 144.756 5.87857C144.235 6.18036 143.872 6.63739 143.669 7.19426L145.549 7.87774ZM159.981 22H158.981V23H159.981V22ZM159.981 17.808V16.808H158.981V17.808H159.981ZM165.357 17.808H166.357V16.808H165.357V17.808ZM165.357 22V23H166.357V22H165.357ZM160.981 22V17.808H158.981V22H160.981ZM159.981 18.808H165.357V16.808H159.981V18.808ZM164.357 17.808V22H166.357V17.808H164.357ZM165.357 21H159.981V23H165.357V21Z" fill="#6F1502" mask="url(#path-1-outside-1_201_2)"/>
</g>
<defs>
<filter id="filter0_d_201_2" x="0.463989" y="0.559998" width="168.893" height="29.44" filterUnits="userSpaceOnUse" color-interpolation-filters="sRGB">
<feFlood flood-opacity="0" result="BackgroundImageFix"/>
<feColorMatrix in="SourceAlpha" type="matrix" values="0 0 0 0 0 0 0 0 0 0 0 0 0 0 0 0 0 0 127 0" result="hardAlpha"/>
<feOffset dy="4"/>
<feGaussianBlur stdDeviation="2"/>
<feComposite in2="hardAlpha" operator="out"/>
<feColorMatrix type="matrix" values="0 0 0 0 0 0 0 0 0 0 0 0 0 0 0 0 0 0 0.25 0"/>
<feBlend mode="normal" in2="BackgroundImageFix" result="effect1_dropShadow_201_2"/>
<feBlend mode="normal" in="SourceGraphic" in2="effect1_dropShadow_201_2" result="shape"/>
</filter>
</defs>
</svg>
