<svg width="36" height="30" viewBox="0 0 36 30" fill="none" xmlns="http://www.w3.org/2000/svg">
<path d="M30.1119 0.992042L27.8087 2.98025L18.0022 11.0325L8.19576 2.90072L5.89259 0.912513C5.35 0.416545 4.68765 0.107369 3.98759 0.0232876C3.28753 -0.0607937 2.58053 0.0839155 1.95417 0.439487C1.32782 0.795058 0.809639 1.34587 0.463828 2.02367C0.118016 2.70148 -0.0402283 3.47649 0.00869878 4.2527V27.296C0.00869878 28.0132 0.26652 28.7009 0.725444 29.208C1.18437 29.7151 1.8068 30 2.45582 30H8.19576V14.651L18.0022 22.7828L27.8087 14.651V30H33.5486C34.1977 30 34.8201 29.7151 35.279 29.208C35.738 28.7009 35.9958 28.0132 35.9958 27.296V4.2527C36.0296 3.48319 35.8603 2.7194 35.5086 2.05419C35.1569 1.38897 34.6379 0.850971 34.0146 0.505588C33.3914 0.160205 32.6907 0.0223119 31.9979 0.108671C31.3051 0.19503 30.6498 0.501922 30.1119 0.992042Z" fill="white"/>
</svg>
