<svg width="38" height="38" viewBox="0 0 38 38" fill="none" xmlns="http://www.w3.org/2000/svg">
<path d="M7.94654 24.0751C7.94281 25.1274 7.52304 26.1354 6.77885 26.8793C6.03466 27.6231 5.02646 28.0424 3.97428 28.0456C2.9214 28.0429 1.91238 27.6236 1.16769 26.8793C0.423007 26.1349 0.00319849 25.1261 0 24.0731C0 21.8859 1.78721 20.0986 3.97428 20.0986H7.94654V24.0751ZM9.94983 24.0751C9.94983 21.888 11.737 20.1007 13.9241 20.1007C16.1112 20.1007 17.8964 21.888 17.8964 24.0751V34.0255C17.8937 35.0784 17.4744 36.0875 16.7301 36.8322C15.9858 37.577 14.977 37.9968 13.9241 38C12.8709 37.9973 11.8616 37.5777 11.1168 36.833C10.3721 36.0882 9.9525 35.0788 9.94983 34.0255V24.0751ZM13.9241 7.94494C12.8712 7.94228 11.8622 7.52296 11.1175 6.77861C10.3728 6.03426 9.95303 5.0254 9.94983 3.97247C9.94983 1.78529 11.737 0 13.9241 0C16.1112 0 17.8964 1.78529 17.8964 3.97247V7.94696L13.9241 7.94494ZM13.9241 9.94834C16.1112 9.94834 17.8964 11.7336 17.8964 13.9208C17.8937 14.9737 17.4744 15.9828 16.7301 16.7275C15.9858 17.4723 14.977 17.8921 13.9241 17.8953H3.97428C2.92105 17.8926 1.91173 17.473 1.16698 16.7283C0.422239 15.9835 0.00266573 14.9741 0 13.9208C0 11.7336 1.78721 9.94834 3.97428 9.94834H13.9241ZM30.0514 13.9208C30.0514 11.7336 31.8387 9.94834 34.0257 9.94834C36.2128 9.94834 38 11.7336 38 13.9208C37.9973 14.9741 37.5778 15.9835 36.833 16.7283C36.0883 17.473 35.0789 17.8926 34.0257 17.8953H30.0514V13.9208ZM28.0502 13.9208C28.0475 14.9741 27.6279 15.9835 26.8832 16.7283C26.1384 17.473 25.1291 17.8926 24.0759 17.8953C23.0227 17.8926 22.0133 17.473 21.2686 16.7283C20.5238 15.9835 20.1043 14.9741 20.1016 13.9208V3.97247C20.1016 1.78529 21.8888 0 24.0759 0C26.263 0 28.0502 1.78529 28.0502 3.97247V13.9208ZM24.0759 30.051C26.263 30.051 28.0502 31.8383 28.0502 34.0255C28.0475 35.0788 27.6279 36.0882 26.8832 36.833C26.1384 37.5777 25.1291 37.9973 24.0759 38C23.0227 37.9973 22.0133 37.5777 21.2686 36.833C20.5238 36.0882 20.1043 35.0788 20.1016 34.0255V30.051H24.0759ZM24.0759 28.0476C23.023 28.045 22.014 27.6256 21.2693 26.8813C20.5246 26.1369 20.1048 25.1281 20.1016 24.0751C20.1016 21.888 21.8888 20.1007 24.0759 20.1007H34.0257C36.2128 20.1007 38 21.888 38 24.0751C37.9968 25.1281 37.577 26.1369 36.8323 26.8813C36.0876 27.6256 35.0786 28.045 34.0257 28.0476H24.0759Z" fill="white"/>
</svg>
